<svg width="22" height="22" viewBox="0 0 22 22" fill="none" xmlns="http://www.w3.org/2000/svg">
<g clip-path="url(#clip0_540_3242)">
<path d="M1.83335 16.0416H4.125C5.13752 16.0416 5.95835 16.8624 5.95835 17.875V20.1666C5.95835 21.1792 5.13752 22 4.125 22H1.83335C0.820832 22 0 21.1792 0 20.1666V17.875C0 16.8625 0.820832 16.0416 1.83335 16.0416Z" fill="#394047"/>
<path d="M21.1915 16.3551C20.889 16.1503 20.5319 16.041 20.1666 16.0416H17.875C16.8625 16.0416 16.0416 16.8624 16.0416 17.875V20.1666C16.0416 21.1792 16.8625 22 17.875 22H20.1666C21.1792 22 22 21.1792 22 20.1666V17.875C21.9999 17.2655 21.6969 16.6959 21.1915 16.3551Z" fill="#394047"/>
<path d="M1.83335 8.02087H4.125C5.13752 8.02087 5.95835 8.84171 5.95835 9.85422V12.1459C5.95835 13.1584 5.13752 13.9792 4.125 13.9792H1.83335C0.820832 13.9792 0 13.1584 0 12.1459V9.85422C0 8.84166 0.820832 8.02087 1.83335 8.02087Z" fill="#394047"/>
<path d="M21.1915 8.33438C20.889 8.1295 20.5319 8.02027 20.1666 8.02088H17.875C16.8625 8.02088 16.0416 8.84171 16.0416 9.85422V12.1459C16.0416 13.1584 16.8625 13.9792 17.875 13.9792H20.1666C21.1791 13.9792 22 13.1584 22 12.1459V9.85422C21.9999 9.24467 21.6969 8.67508 21.1915 8.33438Z" fill="#394047"/>
<path d="M1.83335 0H4.125C5.13752 0 5.95835 0.820832 5.95835 1.83335V4.125C5.95835 5.13752 5.13752 5.95835 4.125 5.95835H1.83335C0.820832 5.95835 0 5.13752 0 4.125V1.83335C0 0.820832 0.820832 0 1.83335 0Z" fill="#394047"/>
<path d="M13.1706 16.3551C12.8681 16.1503 12.5111 16.041 12.1458 16.0416H9.8541C8.84158 16.0416 8.02075 16.8624 8.02075 17.875V20.1666C8.02075 21.1791 8.84158 22 9.8541 22H12.1458C13.1583 22 13.9791 21.1792 13.9791 20.1666V17.875C13.979 17.2655 13.676 16.6959 13.1706 16.3551Z" fill="#394047"/>
<path d="M13.1706 8.33438C12.8681 8.1295 12.5111 8.02027 12.1458 8.02088H9.8541C8.84158 8.02088 8.02075 8.84171 8.02075 9.85422V12.1459C8.02075 13.1584 8.84158 13.9792 9.8541 13.9792H12.1458C13.1583 13.9792 13.9791 13.1584 13.9791 12.1459V9.85422C13.979 9.24467 13.676 8.67508 13.1706 8.33438Z" fill="#394047"/>
<path d="M13.1706 0.313502C12.8681 0.108627 12.5111 -0.000599091 12.1458 2.4715e-06H9.8541C8.84158 2.4715e-06 8.02075 0.820835 8.02075 1.83335V4.125C8.02075 5.13752 8.84158 5.95835 9.8541 5.95835H12.1458C13.1583 5.95835 13.9791 5.13752 13.9791 4.125V1.83335C13.979 1.22384 13.676 0.654202 13.1706 0.313502Z" fill="#394047"/>
<path d="M21.6865 0.8085C21.3458 0.303102 20.7761 8.59375e-05 20.1666 0H17.875C16.8625 0 16.0416 0.820832 16.0416 1.83335V4.125C16.0416 5.13752 16.8625 5.95835 17.875 5.95835H20.1666C21.1792 5.95835 22 5.13752 22 4.125V1.83335C22.0006 1.46803 21.8913 1.11096 21.6865 0.8085Z" fill="#394047"/>
</g>
<defs>
<clipPath id="clip0_540_3242">
<rect width="22" height="22" fill="white"/>
</clipPath>
</defs>
</svg>
