<svg width="16" height="16" viewBox="0 0 16 16" fill="none" xmlns="http://www.w3.org/2000/svg">
<path d="M11.3339 12.6676C11.3339 14.5071 9.84051 16 8.00041 16H3.33351C1.49341 16 0 14.5071 0 12.6676V8.00212C0 6.16261 1.49341 4.66967 3.33351 4.66967H4.00021C4.36689 4.66967 4.66691 4.96959 4.66691 5.33616C4.66691 5.70273 4.36689 6.00265 4.00021 6.00265H3.33351C2.23345 6.00265 1.3334 6.90241 1.3334 8.00212V12.6676C1.3334 13.7673 2.23345 14.667 3.33351 14.667H8.00041C9.10047 14.667 10.0005 13.7673 10.0005 12.6676C10.0005 12.301 10.3005 12.0011 10.6672 12.0011C11.0339 12.0011 11.3339 12.301 11.3339 12.6676ZM15.4208 3.92986L11.8139 0.204184C11.5606 -0.0624123 11.1339 -0.0690772 10.8739 0.190854C10.6139 0.450785 10.6006 0.870674 10.8606 1.13061L14.2874 4.663H8.66712C6.82702 4.663 5.33361 6.15594 5.33361 7.99545V11.3279C5.33361 11.6945 5.63363 11.9944 6.00031 11.9944C6.367 11.9944 6.66701 11.6945 6.66701 11.3279V7.99545C6.66701 6.89574 7.56706 5.99598 8.66712 5.99598H14.2807L10.8539 9.52838C10.6006 9.79498 10.6005 10.2149 10.8672 10.4681C10.9939 10.5948 11.1672 10.6547 11.3339 10.6547C11.5006 10.6547 11.6806 10.5881 11.8139 10.4548L15.4141 6.74245C16.1942 5.96266 16.1942 4.69633 15.4208 3.9232V3.92986Z" fill="#CF2124"/>
</svg>
