<svg width="22" height="22" viewBox="0 0 22 22" fill="none" xmlns="http://www.w3.org/2000/svg">
<path d="M6.41667 5.50002H21.0833C21.3264 5.50002 21.5596 5.40344 21.7315 5.23153C21.9034 5.05963 22 4.82647 22 4.58335C22 4.34024 21.9034 4.10708 21.7315 3.93517C21.5596 3.76326 21.3264 3.66669 21.0833 3.66669H6.41667C6.17355 3.66669 5.94039 3.76326 5.76849 3.93517C5.59658 4.10708 5.5 4.34024 5.5 4.58335C5.5 4.82647 5.59658 5.05963 5.76849 5.23153C5.94039 5.40344 6.17355 5.50002 6.41667 5.50002Z" fill="#22262A"/>
<path d="M21.0833 10.0833H6.41667C6.17355 10.0833 5.94039 10.1799 5.76849 10.3518C5.59658 10.5237 5.5 10.7569 5.5 11C5.5 11.2431 5.59658 11.4763 5.76849 11.6482C5.94039 11.8201 6.17355 11.9166 6.41667 11.9166H21.0833C21.3264 11.9166 21.5596 11.8201 21.7315 11.6482C21.9034 11.4763 22 11.2431 22 11C22 10.7569 21.9034 10.5237 21.7315 10.3518C21.5596 10.1799 21.3264 10.0833 21.0833 10.0833Z" fill="#22262A"/>
<path d="M21.0833 16.5H6.41667C6.17355 16.5 5.94039 16.5966 5.76849 16.7685C5.59658 16.9404 5.5 17.1736 5.5 17.4167C5.5 17.6598 5.59658 17.8929 5.76849 18.0648C5.94039 18.2368 6.17355 18.3333 6.41667 18.3333H21.0833C21.3264 18.3333 21.5596 18.2368 21.7315 18.0648C21.9034 17.8929 22 17.6598 22 17.4167C22 17.1736 21.9034 16.9404 21.7315 16.7685C21.5596 16.5966 21.3264 16.5 21.0833 16.5Z" fill="#22262A"/>
<path d="M1.83333 6.41667C2.84586 6.41667 3.66667 5.59586 3.66667 4.58333C3.66667 3.57081 2.84586 2.75 1.83333 2.75C0.820811 2.75 0 3.57081 0 4.58333C0 5.59586 0.820811 6.41667 1.83333 6.41667Z" fill="#22262A"/>
<path d="M1.83333 12.8334C2.84586 12.8334 3.66667 12.0125 3.66667 11C3.66667 9.9875 2.84586 9.16669 1.83333 9.16669C0.820811 9.16669 0 9.9875 0 11C0 12.0125 0.820811 12.8334 1.83333 12.8334Z" fill="#22262A"/>
<path d="M1.83333 19.25C2.84586 19.25 3.66667 18.4292 3.66667 17.4166C3.66667 16.4041 2.84586 15.5833 1.83333 15.5833C0.820811 15.5833 0 16.4041 0 17.4166C0 18.4292 0.820811 19.25 1.83333 19.25Z" fill="#22262A"/>
</svg>
