<svg width="26" height="26" viewBox="0 0 26 26" fill="none" xmlns="http://www.w3.org/2000/svg">
<path d="M21.6667 10.8334C21.6667 16.2424 15.6661 21.8758 13.6511 23.6156C13.4634 23.7568 13.2349 23.8331 13 23.8331C12.7651 23.8331 12.5366 23.7568 12.3489 23.6156C10.3339 21.8758 4.33333 16.2424 4.33333 10.8334C4.33333 8.53481 5.24642 6.33041 6.87174 4.70509C8.49705 3.07978 10.7015 2.16669 13 2.16669C15.2985 2.16669 17.5029 3.07978 19.1283 4.70509C20.7536 6.33041 21.6667 8.53481 21.6667 10.8334Z" stroke="#CF2124" stroke-width="1.33333" stroke-linecap="round" stroke-linejoin="round"/>
<path d="M13 14.0833C14.7949 14.0833 16.25 12.6282 16.25 10.8333C16.25 9.03839 14.7949 7.58331 13 7.58331C11.2051 7.58331 9.75 9.03839 9.75 10.8333C9.75 12.6282 11.2051 14.0833 13 14.0833Z" stroke="#CF2124" stroke-width="1.33333" stroke-linecap="round" stroke-linejoin="round"/>
</svg>
