<svg width="16" height="16" viewBox="0 0 16 16" fill="none" xmlns="http://www.w3.org/2000/svg">
<path d="M13.565 3.69333L11.122 1.36667C10.198 0.486667 8.966 0 7.657 0H4.5C2.568 0 1 1.49333 1 3.33333V12.6667C1 14.5067 2.568 16 4.5 16H11.5C13.432 16 15 14.5067 15 12.6667V6.99333C15 5.74667 14.489 4.57333 13.565 3.69333ZM12.578 4.63333C12.802 4.84667 12.991 5.08 13.145 5.33333H10.107C9.722 5.33333 9.407 5.03333 9.407 4.66667V1.77333C9.673 1.92 9.918 2.1 10.142 2.31333L12.585 4.64L12.578 4.63333ZM13.6 12.6667C13.6 13.7667 12.655 14.6667 11.5 14.6667H4.5C3.345 14.6667 2.4 13.7667 2.4 12.6667V3.33333C2.4 2.23333 3.345 1.33333 4.5 1.33333H7.657C7.769 1.33333 7.888 1.33333 8 1.34667V4.66667C8 5.76667 8.945 6.66667 10.1 6.66667H13.586C13.6 6.77333 13.6 6.88 13.6 6.99333V12.6667ZM4.563 8.66667H3.8C3.415 8.66667 3.1 8.96667 3.1 9.33333V12.2933C3.1 12.5267 3.296 12.7067 3.534 12.7067C3.772 12.7067 3.968 12.52 3.968 12.2933V11.48H4.556C5.382 11.48 6.054 10.8467 6.054 10.0733C6.054 9.3 5.382 8.66667 4.556 8.66667H4.563ZM4.563 10.6467H3.982V9.5H4.57C4.906 9.5 5.193 9.76 5.193 10.0733C5.193 10.3867 4.906 10.6467 4.57 10.6467H4.563ZM12.914 9.08667C12.914 9.32 12.718 9.5 12.48 9.5H11.297V10.26H12.165C12.41 10.26 12.599 10.4467 12.599 10.6733C12.599 10.9 12.403 11.0867 12.165 11.0867H11.297V12.2867C11.297 12.52 11.101 12.7 10.863 12.7C10.625 12.7 10.429 12.5133 10.429 12.2867V9.08C10.429 8.84667 10.625 8.66667 10.863 8.66667H12.48C12.725 8.66667 12.914 8.85333 12.914 9.08V9.08667ZM8.063 8.67333H7.3C6.915 8.67333 6.6 8.97333 6.6 9.34V12.3C6.6 12.5333 6.796 12.6733 7.034 12.6733C7.272 12.6733 8.056 12.6733 8.056 12.6733C8.882 12.6733 9.554 12.04 9.554 11.2667V10.08C9.554 9.30667 8.882 8.67333 8.056 8.67333H8.063ZM8.686 11.2667C8.686 11.58 8.399 11.84 8.063 11.84H7.482V9.50667H8.07C8.406 9.50667 8.693 9.76667 8.693 10.08V11.2667H8.686Z" fill="#65758B"/>
</svg>
