<svg width="62" height="51" viewBox="0 0 62 51" fill="none" xmlns="http://www.w3.org/2000/svg">
<path d="M48.9748 48L11.4622 48L-6.67477e-07 12L62 12L48.9748 48Z" fill="url(#paint0_linear_846_68)"/>
<path d="M49 48L13 48" stroke="#CF2124" stroke-width="4.22983" stroke-linecap="round"/>
<g clip-path="url(#clip0_846_68)">
<g clip-path="url(#clip1_846_68)">
<path d="M17.1246 0.140993C16.4609 0.237638 15.6436 0.654872 15.1492 1.14922C14.651 1.64744 14.2491 2.44474 14.1358 3.15971C14.0282 3.83895 14.0282 30.18 14.1358 30.8592C14.3843 32.4276 15.6315 33.6595 17.1975 33.8834C17.9213 33.9869 44.0976 33.9869 44.8214 33.8834C46.4072 33.6567 47.6567 32.4072 47.8834 30.8214C47.9869 30.0976 47.9869 3.92129 47.8834 3.19755C47.6567 1.61172 46.4072 0.36221 44.8214 0.135468C44.1592 0.0408659 17.7761 0.0460878 17.1246 0.140993ZM45.0243 2.66778C45.1361 2.75103 45.2981 2.94349 45.3844 3.09538L45.5416 3.37169L45.522 17.0965C45.5029 30.5553 45.4996 30.8252 45.3555 31.0149C45.2745 31.1213 45.1213 31.2745 45.0149 31.3555C44.8252 31.4996 44.5553 31.5029 31.0965 31.522L17.3717 31.5416L17.0954 31.3844C16.9435 31.2981 16.751 31.1361 16.6678 31.0243C16.5177 30.8231 16.5164 30.7032 16.5164 17.0095V3.19755L16.6843 2.96218C17.0558 2.44134 15.8714 2.47948 31.0851 2.49886C44.6893 2.51626 44.8233 2.51785 45.0243 2.66778Z" fill="#CF2124"/>
<path d="M26.9326 4.98007C26.4066 5.08641 25.968 5.33759 25.6069 5.73924C25.1543 6.2426 25.0215 6.65097 24.9745 7.68267C24.9361 8.52955 24.9346 8.5353 24.7373 8.57465C23.9903 8.72359 23.7057 8.86209 23.2887 9.2794C22.6577 9.91111 22.5903 10.1515 22.5515 11.9096L22.5195 13.3562L21.6749 13.3978C20.5658 13.4523 20.1927 13.5869 19.6504 14.1287C18.8966 14.8817 18.9382 14.4656 18.9382 21.2476C18.9382 28.0301 18.8965 27.6131 19.6512 28.3678C20.4282 29.1448 19.4069 29.0807 31.0095 29.0807C42.6121 29.0807 41.5908 29.1448 42.3678 28.3678C43.1225 27.6131 43.0807 28.0301 43.0807 21.2476C43.0807 14.4656 43.1223 14.8817 42.3685 14.1287C41.8263 13.5871 41.4531 13.4523 40.3451 13.3978L39.5015 13.3563L39.4671 11.9096C39.425 10.1488 39.3574 9.90733 38.7302 9.2794C38.3134 8.86224 38.028 8.72337 37.2827 8.57488C37.087 8.5359 37.0848 8.52788 37.0433 7.68289C36.9885 6.56523 36.8548 6.19363 36.3128 5.6516C35.5822 4.92097 35.752 4.94496 31.1987 4.92793C29.0342 4.91983 27.1144 4.94329 26.9326 4.98007ZM34.6551 8.70339C34.6779 9.96697 34.6941 10.1071 34.8451 10.3495C35.1203 10.7912 35.4054 10.9086 36.2837 10.9423L37.055 10.9717L37.0784 12.95C37.1007 14.8299 37.11 14.9414 37.2669 15.1931C37.5862 15.7055 37.7665 15.7577 39.3155 15.7856L40.6967 15.8106V21.2536V26.6967H31.0095H21.3222V21.2536V15.8106L22.7034 15.7856C24.2525 15.7577 24.4327 15.7055 24.752 15.1931C24.9089 14.9414 24.9182 14.8299 24.9406 12.95L24.9639 10.9717L25.7354 10.9432C26.6082 10.9109 26.9194 10.7807 27.1875 10.3358C27.3213 10.1139 27.3418 9.92345 27.3638 8.70339L27.3888 7.3222H31.0095H34.6302L34.6551 8.70339Z" fill="#CF2124"/>
<path d="M35.4985 18.3014C35.1634 18.4016 34.8127 18.7764 34.7151 19.1385C34.6629 19.3325 34.6416 20.1635 34.6566 21.424C34.6828 23.638 34.7042 23.7344 35.2423 24.0676C35.7803 24.4008 36.5416 24.2086 36.8748 23.6557C37.0168 23.4201 37.0262 23.2704 37.0262 21.2476C37.0262 19.2249 37.0168 19.0751 36.8748 18.8395C36.6001 18.3838 36.0034 18.1504 35.4985 18.3014Z" fill="#CF2124"/>
<path d="M30.6549 18.3014C30.3198 18.4016 29.9691 18.7764 29.8715 19.1385C29.8193 19.3325 29.798 20.1635 29.8129 21.424C29.8392 23.638 29.8605 23.7344 30.3986 24.0676C30.9367 24.4008 31.698 24.2086 32.0312 23.6557C32.1731 23.4201 32.1825 23.2704 32.1825 21.2476C32.1825 19.2249 32.1731 19.0751 32.0312 18.8395C31.7565 18.3838 31.1598 18.1504 30.6549 18.3014Z" fill="#CF2124"/>
<path d="M25.8113 18.3014C25.4761 18.4016 25.1254 18.7764 25.0279 19.1385C24.9757 19.3325 24.9544 20.1635 24.9693 21.424C24.9956 23.638 25.0169 23.7344 25.555 24.0676C26.093 24.4008 26.8544 24.2086 27.1875 23.6557C27.3295 23.4201 27.3389 23.2704 27.3389 21.2476C27.3389 19.2249 27.3295 19.0751 27.1875 18.8395C26.9129 18.3838 26.3161 18.1504 25.8113 18.3014Z" fill="#CF2124"/>
</g>
</g>
<defs>
<linearGradient id="paint0_linear_846_68" x1="30.2185" y1="48" x2="30.2185" y2="12" gradientUnits="userSpaceOnUse">
<stop stop-color="#CF2124" stop-opacity="0.2"/>
<stop offset="1" stop-color="#CF2124" stop-opacity="0"/>
</linearGradient>
<clipPath id="clip0_846_68">
<rect width="34" height="34" fill="white" transform="translate(14)"/>
</clipPath>
<clipPath id="clip1_846_68">
<rect width="34" height="34" fill="white" transform="translate(14)"/>
</clipPath>
</defs>
</svg>
