<svg width="21" height="20" viewBox="0 0 21 20" fill="none" xmlns="http://www.w3.org/2000/svg">
<path d="M9.33691 0.690969C9.63626 -0.230342 10.9397 -0.230344 11.239 0.690967L12.9821 6.05571C13.116 6.46773 13.5 6.74669 13.9332 6.74669H19.574C20.5427 6.74669 20.9455 7.98631 20.1618 8.55571L15.5983 11.8713C15.2478 12.126 15.1011 12.5773 15.235 12.9893L16.9781 18.3541C17.2775 19.2754 16.223 20.0415 15.4393 19.4721L10.8757 16.1565C10.5253 15.9019 10.0507 15.9019 9.70018 16.1565L5.13665 19.4721C4.35294 20.0415 3.29846 19.2754 3.59781 18.3541L5.34092 12.9893C5.4748 12.5773 5.32814 12.126 4.97765 11.8713L0.414129 8.55571C-0.369585 7.98631 0.0331893 6.74669 1.00191 6.74669H6.64274C7.07596 6.74669 7.45992 6.46773 7.5938 6.05571L9.33691 0.690969Z" fill="#F7F7F7"/>
<path d="M9.81238 0.845947C9.96205 0.385289 10.6139 0.385295 10.7635 0.845947L12.5067 6.21021C12.7075 6.82823 13.2836 7.24634 13.9335 7.24634H19.5741C20.0584 7.2464 20.2599 7.86692 19.868 8.15161L15.3046 11.467C14.7788 11.849 14.5588 12.5258 14.7596 13.1438L16.5028 18.509C16.652 18.9695 16.125 19.3521 15.7333 19.0676L11.1698 15.7522C10.6441 15.3702 9.93186 15.3702 9.40613 15.7522L4.84265 19.0676C4.45093 19.3521 3.92396 18.9694 4.07312 18.509L5.81628 13.1438C6.01709 12.5258 5.79709 11.849 5.27136 11.467L0.707886 8.15161C0.316049 7.86692 0.517531 7.24641 1.00183 7.24634H6.64246C7.29229 7.24634 7.8684 6.82823 8.06921 6.21021L9.81238 0.845947Z" stroke="#65758B" stroke-opacity="0.2"/>
</svg>
