<svg width="16" height="16" viewBox="0 0 16 16" fill="none" xmlns="http://www.w3.org/2000/svg">
<path d="M15.8878 5.9258C15.7514 5.47737 15.4789 5.08618 15.1106 4.81009C14.7424 4.53399 14.2978 4.38765 13.8428 4.3927H10.9296L10.0448 1.54413C9.90561 1.09574 9.63219 0.704584 9.26393 0.427063C8.89566 0.149543 8.45158 0 7.99572 0C7.53986 0 7.09578 0.149543 6.72751 0.427063C6.35924 0.704584 6.08582 1.09574 5.94668 1.54413L5.06185 4.3927H2.14866C1.69507 4.39337 1.25329 4.54207 0.886416 4.81758C0.519542 5.09308 0.246341 5.48129 0.105836 5.92676C-0.034669 6.37222 -0.0352909 6.85216 0.104059 7.29801C0.243409 7.74386 0.515603 8.13283 0.881762 8.40934L3.25286 10.2L2.35136 13.0837C2.20568 13.531 2.20383 14.0149 2.3461 14.4633C2.48837 14.9117 2.76713 15.3006 3.14084 15.5721C3.50814 15.8522 3.95325 16.0023 4.40984 16C4.86643 15.9976 5.31006 15.8429 5.67463 15.559L7.99572 13.7945L10.3175 15.5569C10.6841 15.8355 11.1268 15.9868 11.5819 15.9891C12.0371 15.9914 12.4812 15.8445 12.8504 15.5697C13.2197 15.2948 13.495 14.9061 13.6369 14.4594C13.7788 14.0127 13.7799 13.5311 13.6401 13.0837L12.7386 10.2L15.1123 8.40934C15.4827 8.1363 15.7581 7.74734 15.8977 7.30004C16.0374 6.85275 16.0339 6.37089 15.8878 5.9258ZM14.3255 7.29705L11.5624 9.3832C11.4489 9.46872 11.3644 9.58908 11.3211 9.72711C11.2777 9.86513 11.2777 10.0138 11.321 10.1518L12.3712 13.5059C12.4243 13.676 12.4239 13.8592 12.3699 14.029C12.3159 14.1988 12.2112 14.3466 12.0707 14.4511C11.9303 14.5556 11.7614 14.6114 11.5884 14.6105C11.4153 14.6095 11.247 14.552 11.1076 14.446L8.39046 12.3798C8.27601 12.293 8.13772 12.2462 7.99572 12.2462C7.85372 12.2462 7.71542 12.293 7.60098 12.3798L4.88382 14.446C4.74452 14.5534 4.57572 14.6122 4.40191 14.6138C4.2281 14.6154 4.0583 14.5598 3.91713 14.4551C3.77596 14.3503 3.67077 14.2019 3.61679 14.0312C3.56281 13.8605 3.56286 13.6765 3.61692 13.5059L4.67045 10.1518C4.71373 10.0138 4.7137 9.86513 4.67036 9.72711C4.62701 9.58908 4.54257 9.46872 4.42907 9.3832L1.6659 7.29705C1.52675 7.19181 1.42335 7.04384 1.37048 6.87427C1.31761 6.70471 1.31797 6.52222 1.37151 6.35288C1.42505 6.18354 1.52903 6.036 1.6686 5.93135C1.80817 5.82669 1.97619 5.77027 2.14866 5.77015H5.54927C5.69044 5.77014 5.82797 5.72386 5.94205 5.63797C6.05612 5.55207 6.14086 5.43099 6.18406 5.29217L7.21758 1.96494C7.27063 1.79468 7.37461 1.64619 7.51457 1.54086C7.65452 1.43552 7.82322 1.37877 7.99639 1.37877C8.16955 1.37877 8.33825 1.43552 8.4782 1.54086C8.61816 1.64619 8.72214 1.79468 8.77519 1.96494L9.80871 5.29217C9.85191 5.43099 9.93665 5.55207 10.0507 5.63797C10.1648 5.72386 10.3023 5.77014 10.4435 5.77015H13.8441C14.0166 5.77027 14.1846 5.82669 14.3242 5.93135C14.4637 6.036 14.5677 6.18354 14.6213 6.35288C14.6748 6.52222 14.6752 6.70471 14.6223 6.87427C14.5694 7.04384 14.466 7.19181 14.3269 7.29705H14.3255Z" fill="#22262A"/>
</svg>
