<svg width="16" height="14" viewBox="0 0 16 14" fill="none" xmlns="http://www.w3.org/2000/svg">
<path d="M14.3115 0.179018C14.0016 0.283154 10.8616 1.32767 7.33016 2.50157C3.8019 3.67231 0.812117 4.66633 0.68689 4.71367C0.40513 4.81465 0.211029 4.98505 0.0920638 5.22488C-0.0269015 5.46786 -0.0300321 5.83392 0.0795411 6.05166C0.17033 6.23153 0.345648 6.41771 0.49592 6.4966C0.558533 6.52816 1.3819 6.89737 2.32423 7.31391C3.26656 7.73046 4.03983 8.07442 4.04609 8.08073C4.05235 8.08704 4.29655 9.21045 4.5877 10.5768C4.88198 11.9432 5.14496 13.114 5.17626 13.1771C5.29523 13.4232 5.58012 13.5053 5.82744 13.3633C5.89632 13.3222 6.54749 12.8394 7.27381 12.2904L8.59495 11.2932L10.1227 12.5523C10.9617 13.2465 11.7194 13.8492 11.8039 13.8966C12.0042 14.007 12.2797 14.0323 12.5271 13.9565C12.7806 13.8839 13.0687 13.5968 13.1469 13.3412C13.1751 13.2465 13.8357 10.4411 14.6121 7.1088C16.1618 0.459869 16.0804 0.870102 15.9144 0.541916C15.7454 0.210574 15.4636 0.0243921 15.0942 0.00230217C14.8938 -0.00716496 14.8281 0.00545788 14.3115 0.179018ZM15.0629 1.02473C15.0504 1.07522 14.4149 3.79538 13.651 7.07408C12.8871 10.3528 12.2547 13.0445 12.2453 13.0509C12.2359 13.0603 12.2046 13.0445 12.1764 13.0193C12.1451 12.9941 11.065 12.101 9.77208 11.0376C8.48225 9.97411 7.41156 9.09369 7.39904 9.08107C7.38651 9.06845 8.47598 7.89771 9.8253 6.47767C11.1746 5.05763 12.3079 3.84587 12.3455 3.78275C12.3924 3.70702 12.4175 3.61866 12.4175 3.52399C12.4175 3.39777 12.3987 3.35674 12.2985 3.24314C12.1858 3.11376 12.167 3.10429 11.9917 3.09483L11.807 3.0822L8.12222 5.14599L4.44056 7.20978L2.68112 6.43665C1.71688 6.01063 0.937343 5.65089 0.952997 5.63511C0.978042 5.60987 14.9721 0.945838 15.0441 0.942682C15.0754 0.939527 15.0786 0.961616 15.0629 1.02473ZM9.41205 5.52782C9.41205 5.53413 8.71391 6.27886 7.85924 7.17822C7.00457 8.07758 6.28452 8.85386 6.2626 8.90751C6.24069 8.958 6.09668 9.4345 5.94954 9.96465C5.79927 10.4948 5.66778 10.9366 5.65525 10.9524C5.63647 10.9745 5.02286 8.16593 5.0166 8.03024C5.01347 7.98922 5.54568 7.67681 7.20493 6.7459C8.41024 6.07059 9.39953 5.5152 9.40579 5.5152C9.40892 5.5152 9.41205 5.52151 9.41205 5.52782ZM7.43347 10.337C7.64636 10.5106 7.81854 10.662 7.81854 10.6747C7.81854 10.7062 6.45357 11.7318 6.44418 11.7066C6.44105 11.6939 6.52245 11.3847 6.62576 11.0218C6.96387 9.84158 6.9357 9.92047 6.99518 9.97411C7.02336 9.99936 7.22059 10.1603 7.43347 10.337Z" fill="white"/>
</svg>
