<svg width="16" height="16" viewBox="0 0 16 16" fill="none" xmlns="http://www.w3.org/2000/svg">
<path d="M14.3115 1.17902C14.0016 1.28315 10.8616 2.32767 7.33016 3.50157C3.8019 4.67231 0.812117 5.66633 0.68689 5.71367C0.40513 5.81465 0.211029 5.98505 0.0920638 6.22488C-0.0269015 6.46786 -0.0300321 6.83392 0.0795411 7.05166C0.17033 7.23153 0.345648 7.41771 0.49592 7.4966C0.558533 7.52816 1.3819 7.89737 2.32423 8.31391C3.26656 8.73046 4.03983 9.07442 4.04609 9.08073C4.05235 9.08704 4.29655 10.2105 4.5877 11.5768C4.88198 12.9432 5.14496 14.114 5.17626 14.1771C5.29523 14.4232 5.58012 14.5053 5.82744 14.3633C5.89632 14.3222 6.54749 13.8394 7.27381 13.2904L8.59495 12.2932L10.1227 13.5523C10.9617 14.2465 11.7194 14.8492 11.8039 14.8966C12.0042 15.007 12.2797 15.0323 12.5271 14.9565C12.7806 14.8839 13.0687 14.5968 13.1469 14.3412C13.1751 14.2465 13.8357 11.4411 14.6121 8.1088C16.1618 1.45987 16.0804 1.8701 15.9144 1.54192C15.7454 1.21057 15.4636 1.02439 15.0942 1.0023C14.8938 0.992835 14.8281 1.00546 14.3115 1.17902ZM15.0629 2.02473C15.0504 2.07522 14.4149 4.79538 13.651 8.07408C12.8871 11.3528 12.2547 14.0445 12.2453 14.0509C12.2359 14.0603 12.2046 14.0445 12.1764 14.0193C12.1451 13.9941 11.065 13.101 9.77208 12.0376C8.48225 10.9741 7.41156 10.0937 7.39904 10.0811C7.38651 10.0684 8.47598 8.89771 9.8253 7.47767C11.1746 6.05763 12.3079 4.84587 12.3455 4.78275C12.3924 4.70702 12.4175 4.61866 12.4175 4.52399C12.4175 4.39777 12.3987 4.35674 12.2985 4.24314C12.1858 4.11376 12.167 4.10429 11.9917 4.09483L11.807 4.0822L8.12222 6.14599L4.44056 8.20978L2.68112 7.43665C1.71688 7.01063 0.937343 6.65089 0.952997 6.63511C0.978042 6.60987 14.9721 1.94584 15.0441 1.94268C15.0754 1.93953 15.0786 1.96162 15.0629 2.02473ZM9.41205 6.52782C9.41205 6.53413 8.71391 7.27886 7.85924 8.17822C7.00457 9.07758 6.28452 9.85386 6.2626 9.90751C6.24069 9.958 6.09668 10.4345 5.94954 10.9646C5.79927 11.4948 5.66778 11.9366 5.65525 11.9524C5.63647 11.9745 5.02286 9.16593 5.0166 9.03024C5.01347 8.98922 5.54568 8.67681 7.20493 7.7459C8.41024 7.07059 9.39953 6.5152 9.40579 6.5152C9.40892 6.5152 9.41205 6.52151 9.41205 6.52782ZM7.43347 11.337C7.64636 11.5106 7.81854 11.662 7.81854 11.6747C7.81854 11.7062 6.45357 12.7318 6.44418 12.7066C6.44105 12.6939 6.52245 12.3847 6.62576 12.0218C6.96387 10.8416 6.9357 10.9205 6.99518 10.9741C7.02336 10.9994 7.22059 11.1603 7.43347 11.337Z" fill="#65758B"/>
</svg>
