<svg width="16" height="16" viewBox="0 0 16 16" fill="none" xmlns="http://www.w3.org/2000/svg">
<path d="M0.682374 3.04662C0.472857 3.10298 0.338391 3.18438 0.213306 3.32841C-0.0962797 3.67908 -0.0712627 4.16125 0.303992 5.28527C0.844985 6.90399 1.79876 8.65733 2.8526 9.97861C4.19726 11.6662 5.61698 12.6243 7.23057 12.9405C7.62459 13.0188 8.55022 13.0188 8.85355 12.9436C9.36014 12.8153 9.63846 12.5867 9.73227 12.2173C9.74478 12.164 9.75416 11.7664 9.75103 11.3343C9.74791 10.8991 9.75416 10.4952 9.76667 10.4326L9.78543 10.323L9.96368 10.4169C10.3452 10.6205 10.8674 11.0995 11.6461 11.9543C12.2277 12.593 12.4028 12.7527 12.6874 12.8873L12.9219 13H14.0633C15.4143 13 15.433 12.9969 15.727 12.7026C15.8677 12.5585 15.9146 12.4865 15.9584 12.3425C16.1585 11.6505 15.6613 10.824 13.9351 8.98609C13.5943 8.62289 13.3128 8.31293 13.3128 8.30353C13.3128 8.29101 13.4504 8.08436 13.6224 7.84015C14.2729 6.90712 14.964 5.76431 15.3142 5.04732C15.6238 4.41486 15.6707 4.26144 15.6738 3.90451C15.6738 3.55697 15.6175 3.41921 15.4049 3.23448C15.1547 3.02157 15.0922 3.01218 13.8288 3.01218C12.7249 3.01218 12.6999 3.01218 12.5248 3.08419C12.4216 3.1249 12.2684 3.22509 12.1714 3.31589C11.9932 3.47556 11.9744 3.51001 11.6242 4.27396C11.1614 5.27588 10.5578 6.27153 10.0419 6.8852C9.70725 7.2797 9.7354 7.39242 9.75729 5.67038C9.77918 3.7417 9.75729 3.54132 9.46959 3.247C9.22568 2.99339 9.22255 2.99339 7.47449 3.00279L5.9766 3.01218L5.7921 3.10611C5.46687 3.27205 5.27299 3.62272 5.3199 3.96087C5.34492 4.14559 5.45749 4.38981 5.61385 4.59959C5.68265 4.69038 5.76708 4.82189 5.80148 4.89077C5.93907 5.16942 5.94532 5.23831 5.94845 6.57523V7.8558L5.82649 7.71804C5.67014 7.54271 5.24172 6.88833 5.01031 6.47191C4.63193 5.79562 4.25668 4.95026 3.93146 4.05167C3.72194 3.47243 3.55307 3.247 3.19345 3.08419C3.04335 3.01531 3.01208 3.01218 1.94573 3.00592C1.05763 2.99966 0.819968 3.00592 0.682374 3.04662ZM2.84322 4.05167C2.87136 4.08297 2.93703 4.227 2.98706 4.37416C3.46239 5.71421 4.12534 7.0574 4.77578 7.98104C5.02908 8.34424 5.51691 8.8358 5.74206 8.95791C6.10168 9.15203 6.5426 9.08628 6.74587 8.80762C6.946 8.53836 6.94913 8.49765 6.94913 6.78501C6.94913 5.38546 6.94288 5.21013 6.88972 4.9847C6.8303 4.71543 6.66456 4.33032 6.54886 4.17377C6.50821 4.12055 6.46443 4.05793 6.45192 4.03601C6.43316 4.00783 6.67082 3.99844 7.58706 3.99844H8.74723V5.57019C8.75035 6.43747 8.76286 7.28596 8.77537 7.45817C8.80664 7.82762 8.89108 8.05619 9.05056 8.19708C9.19441 8.32232 9.28822 8.35676 9.50086 8.35363C9.96368 8.35363 10.5109 7.9466 11.0769 7.18577C11.6054 6.47504 12.1183 5.58897 12.5686 4.61837C12.703 4.32093 12.8406 4.05793 12.8688 4.03601C12.9063 4.00783 13.1408 3.99844 13.7882 3.99844C14.4636 3.99844 14.6575 4.00783 14.6575 4.03601C14.6575 4.05793 14.6075 4.19569 14.548 4.33972C14.3417 4.84067 13.6631 5.98348 12.9251 7.0668C12.4091 7.82449 12.2996 8.04366 12.2996 8.31606C12.3028 8.68864 12.3778 8.80136 13.219 9.68116C13.5943 10.0725 14.1228 10.6706 14.3823 10.9993C14.6669 11.3562 15.0015 11.8979 15.0015 12.0012C15.0015 12.0075 14.5918 12.0137 14.0884 12.0137H13.1784L13.0439 11.9355C12.972 11.8916 12.7124 11.638 12.4654 11.3656C11.374 10.1539 10.6548 9.55279 10.0825 9.37746C9.77292 9.28353 9.38203 9.30545 9.17564 9.42755C8.9974 9.53088 8.8942 9.67803 8.82228 9.93164C8.7785 10.0851 8.76599 10.2854 8.75974 11.0244C8.75035 11.8321 8.7441 11.9355 8.69719 11.9605C8.66905 11.9762 8.47517 11.9981 8.26565 12.0043C7.14614 12.0544 6.01725 11.6192 4.95715 10.7332C3.93771 9.87841 2.94328 8.56967 2.12085 7.00105C1.63927 6.07741 1.1233 4.75927 1.03887 4.23326C1.02636 4.16438 1.01072 4.08297 1.00134 4.05167C0.988832 4.00157 1.04512 3.99844 1.89257 3.99844C2.715 3.99844 2.79944 4.0047 2.84322 4.05167Z" fill="#65758B"/>
</svg>
