<svg width="16" height="10" viewBox="0 0 16 10" fill="none" xmlns="http://www.w3.org/2000/svg">
<path d="M0.682374 0.0466213C0.472857 0.102979 0.338391 0.184384 0.213306 0.328409C-0.0962797 0.679078 -0.0712627 1.16125 0.303992 2.28527C0.844985 3.90399 1.79876 5.65733 2.8526 6.97861C4.19726 8.6662 5.61698 9.62428 7.23057 9.94051C7.62459 10.0188 8.55022 10.0188 8.85355 9.94364C9.36014 9.81527 9.63846 9.58671 9.73227 9.21726C9.74478 9.16403 9.75416 8.76639 9.75103 8.33432C9.74791 7.89911 9.75416 7.49522 9.76667 7.4326L9.78543 7.32301L9.96368 7.41694C10.3452 7.62046 10.8674 8.0995 11.6461 8.95425C12.2277 9.59297 12.4028 9.75265 12.6874 9.88728L12.9219 10H14.0633C15.4143 10 15.433 9.99687 15.727 9.70256C15.8677 9.55853 15.9146 9.48652 15.9584 9.34249C16.1585 8.65055 15.6613 7.82397 13.9351 5.98609C13.5943 5.62289 13.3128 5.31293 13.3128 5.30353C13.3128 5.29101 13.4504 5.08436 13.6224 4.84015C14.2729 3.90712 14.964 2.76431 15.3142 2.04732C15.6238 1.41486 15.6707 1.26144 15.6738 0.904509C15.6738 0.556971 15.6175 0.419208 15.4049 0.23448C15.1547 0.0215731 15.0922 0.0121803 13.8288 0.0121803C12.7249 0.0121803 12.6999 0.0121803 12.5248 0.0841932C12.4216 0.124895 12.2684 0.225087 12.1714 0.315886C11.9932 0.475565 11.9744 0.510006 11.6242 1.27396C11.1614 2.27588 10.5578 3.27153 10.0419 3.8852C9.70725 4.2797 9.7354 4.39242 9.75729 2.67038C9.77918 0.741698 9.75729 0.541315 9.46959 0.247004C9.22568 -0.00660515 9.22255 -0.00660515 7.47449 0.00278759L5.9766 0.0121803L5.7921 0.10611C5.46687 0.272052 5.27299 0.622721 5.3199 0.960867C5.34492 1.14559 5.45749 1.38981 5.61385 1.59959C5.68265 1.69038 5.76708 1.82189 5.80148 1.89077C5.93907 2.16942 5.94532 2.23831 5.94845 3.57523V4.8558L5.82649 4.71804C5.67014 4.54271 5.24172 3.88833 5.01031 3.47191C4.63193 2.79562 4.25668 1.95026 3.93146 1.05167C3.72194 0.472434 3.55307 0.247004 3.19345 0.0841932C3.04335 0.0153112 3.01208 0.0121803 1.94573 0.0059185C1.05763 -0.000343323 0.819968 0.0059185 0.682374 0.0466213ZM2.84322 1.05167C2.87136 1.08297 2.93703 1.227 2.98706 1.37416C3.46239 2.71421 4.12534 4.0574 4.77578 4.98104C5.02908 5.34424 5.51691 5.8358 5.74206 5.95791C6.10168 6.15203 6.5426 6.08628 6.74587 5.80762C6.946 5.53836 6.94913 5.49765 6.94913 3.78501C6.94913 2.38546 6.94288 2.21013 6.88972 1.9847C6.8303 1.71543 6.66456 1.33032 6.54886 1.17377C6.50821 1.12055 6.46443 1.05793 6.45192 1.03601C6.43316 1.00783 6.67082 0.998438 7.58706 0.998438H8.74723V2.57019C8.75035 3.43747 8.76286 4.28596 8.77537 4.45817C8.80664 4.82762 8.89108 5.05619 9.05056 5.19708C9.19441 5.32232 9.28822 5.35676 9.50086 5.35363C9.96368 5.35363 10.5109 4.9466 11.0769 4.18577C11.6054 3.47504 12.1183 2.58897 12.5686 1.61837C12.703 1.32093 12.8406 1.05793 12.8688 1.03601C12.9063 1.00783 13.1408 0.998438 13.7882 0.998438C14.4636 0.998438 14.6575 1.00783 14.6575 1.03601C14.6575 1.05793 14.6075 1.19569 14.548 1.33972C14.3417 1.84067 13.6631 2.98348 12.9251 4.0668C12.4091 4.82449 12.2996 5.04366 12.2996 5.31606C12.3028 5.68864 12.3778 5.80136 13.219 6.68116C13.5943 7.07254 14.1228 7.67055 14.3823 7.99931C14.6669 8.35624 15.0015 8.8979 15.0015 9.00122C15.0015 9.00748 14.5918 9.01374 14.0884 9.01374H13.1784L13.0439 8.93547C12.972 8.89163 12.7124 8.63802 12.4654 8.36563C11.374 7.15394 10.6548 6.55279 10.0825 6.37746C9.77292 6.28353 9.38203 6.30545 9.17564 6.42755C8.9974 6.53088 8.8942 6.67803 8.82228 6.93164C8.7785 7.08506 8.76599 7.28544 8.75974 8.02435C8.75035 8.83215 8.7441 8.93547 8.69719 8.96052C8.66905 8.97617 8.47517 8.99809 8.26565 9.00435C7.14614 9.05444 6.01725 8.61924 4.95715 7.73317C3.93771 6.87841 2.94328 5.56967 2.12085 4.00105C1.63927 3.07741 1.1233 1.75927 1.03887 1.23326C1.02636 1.16438 1.01072 1.08297 1.00134 1.05167C0.988832 1.00157 1.04512 0.998438 1.89257 0.998438C2.715 0.998438 2.79944 1.0047 2.84322 1.05167Z" fill="white"/>
</svg>
